<?xml version="1.0" encoding="UTF-8"?>
<svg id="Calque_1" xmlns="http://www.w3.org/2000/svg" version="1.1" viewBox="0 0 512 512">
  <!-- Generator: Adobe Illustrator 30.0.0, SVG Export Plug-In . SVG Version: 2.1.1 Build 123)  -->
  <defs>
    <style>
      .st0 {
        fill: none;
        stroke: #8db3ce;
        stroke-miterlimit: 10;
        stroke-width: 11.7px;
      }

      .st1 {
        fill: #8db3ce;
      }
    </style>
  </defs>
  <g>
    <path class="st1" d="M251.1,144.2c-10.3-2.9-21.2-4.3-32.7-4.3-32.1,0-59.4,11.3-82,33.9s-34.2,50.3-34.2,82.3,11.3,59.4,34.2,82c22.6,22.6,49.9,33.9,82,33.9s22.1-1.4,32.3-4.3c-15.1-5.8-28.9-14.8-41.2-27.2-23.6-23.2-35.2-51.3-35.2-84.3s11.6-61,35.2-84.6c12.5-12.5,26.4-21.6,41.7-27.4Z"/>
    <path class="st1" d="M482.1,146.1c-18.7-32.6-44.2-58.4-76.8-77.5-32.6-19.1-70-28.8-111.6-28.8s-37.3,2.2-54.7,6.6c32.3,2.7,61.8,11.8,88,27.2,31.7,18.6,56.5,43.7,74.7,75.4,17.8,31.7,27,67.4,27,107.1s-9.5,73.9-28.4,105.6c-18.9,31.7-44.4,57.2-76.1,76.1-26.2,15.7-54.9,24.8-85.9,27.5,17.6,4.6,36.2,6.9,55.6,6.9,39.7,0,76-9.7,108.6-29.2,32.6-19.5,58.8-45.7,78.3-78.3,19.5-32.6,29.2-68.9,29.2-108.6s-9.4-77.5-27.7-110.1Z"/>
  </g>
  <path class="st0" d="M112.4,437.8c-31.7-18.9-57.2-44.4-75.8-76.1-18.9-31.7-28.4-67-28.4-105.6s9.5-74.3,28.4-106c18.6-31.7,44.1-57.2,75.8-76.1,31.7-18.9,67-28.4,106-28.4s76.9,9.5,108.6,28c31.7,18.6,56.5,43.7,74.7,75.4,17.8,31.7,27,67.4,27,107.1s-9.5,73.9-28.4,105.6c-18.9,31.7-44.4,57.2-76.1,76.1-31.7,18.9-67,28.4-105.6,28.4s-74.3-9.5-106-28.4ZM300.4,338c22.6-22.6,33.9-49.9,33.9-82s-11.3-59.4-33.5-82.3c-22.6-22.6-49.9-33.9-82.3-33.9s-59.4,11.3-82,33.9-34.2,50.3-34.2,82.3,11.3,59.4,34.2,82c22.6,22.6,49.9,33.9,82,33.9s59.4-11.3,82-33.9Z"/>
</svg>